<svg width="32" height="32" viewBox="0 0 32 32" fill="none" xmlns="http://www.w3.org/2000/svg">
  <defs>
    <radialGradient id="faceGradient" cx="0.5" cy="0.4" r="0.7">
      <stop offset="0%" stop-color="#e8e8e8"/>
      <stop offset="70%" stop-color="#d0d0d0"/>
      <stop offset="100%" stop-color="#b8b8b8"/>
    </radialGradient>
    <radialGradient id="bgGradient" cx="0.5" cy="0.5" r="1.2">
      <stop offset="0%" stop-color="#404040"/>
      <stop offset="60%" stop-color="#2a2a2a"/>
      <stop offset="100%" stop-color="#0a0a0a"/>
    </radialGradient>
    <linearGradient id="hairGradient" x1="0" y1="0" x2="0" y2="1">
      <stop offset="0%" stop-color="#2a2a2a"/>
      <stop offset="100%" stop-color="#1a1a1a"/>
    </linearGradient>
  </defs>
  
  <!-- Background with rounded corners -->
  <rect width="32" height="32" rx="8" ry="8" fill="url(#bgGradient)"/>
  
  <!-- Face shape -->
  <ellipse cx="16" cy="17" rx="7" ry="9" fill="url(#faceGradient)"/>
  
  <!-- Hair (styled and voluminous) -->
  <path d="M9 13 Q12 8 16 9 Q20 8 23 13 Q22 10 20 9 Q18 8 16 8 Q14 8 12 9 Q10 10 9 13" fill="url(#hairGradient)"/>
  <path d="M9 13 Q11 11 13 12 Q15 10 17 11 Q19 10 21 12 Q23 11 23 13" fill="#1a1a1a"/>
  
  <!-- Eyes with more detail -->
  <ellipse cx="13" cy="15.5" rx="1.8" ry="1.2" fill="#ffffff"/>
  <ellipse cx="19" cy="15.5" rx="1.8" ry="1.2" fill="#ffffff"/>
  <ellipse cx="13" cy="15.5" rx="1.2" ry="1" fill="#2a2a2a"/>
  <ellipse cx="19" cy="15.5" rx="1.2" ry="1" fill="#2a2a2a"/>
  <ellipse cx="13.2" cy="15.3" rx="0.3" ry="0.3" fill="#ffffff"/>
  <ellipse cx="19.2" cy="15.3" rx="0.3" ry="0.3" fill="#ffffff"/>
  
  <!-- Eyebrows (thicker and more defined) -->
  <path d="M11 13.5 Q13 12.5 15.5 13.5" stroke="#1a1a1a" stroke-width="1.8" stroke-linecap="round" fill="none"/>
  <path d="M16.5 13.5 Q19 12.5 21 13.5" stroke="#1a1a1a" stroke-width="1.8" stroke-linecap="round" fill="none"/>
  
  <!-- Nose with shadow -->
  <path d="M16 17 L15.3 19.5 L16.7 19.5 Z" fill="#c0c0c0"/>
  <path d="M15.5 19.5 Q16 20 16.5 19.5" stroke="#b0b0b0" stroke-width="0.5" fill="none"/>
  
  <!-- Mouth -->
  <path d="M14 21.5 Q16 22.5 18 21.5" stroke="#2a2a2a" stroke-width="1.2" stroke-linecap="round" fill="none"/>
  
  <!-- Beard (fuller and more detailed) -->
  <ellipse cx="16" cy="24" rx="5" ry="3.5" fill="#1a1a1a"/>
  <path d="M11.5 22 Q13 25 16 25.5 Q19 25 20.5 22" fill="#1a1a1a"/>
  
  <!-- Mustache -->
  <path d="M14 20.5 Q16 21.2 18 20.5" stroke="#1a1a1a" stroke-width="1.5" stroke-linecap="round" fill="none"/>
  
  <!-- Shirt collar -->
  <path d="M8 28 Q16 30 24 28 L24 32 L8 32 Z" fill="#0a0a0a"/>
  <path d="M14 28 L16 30 L18 28" stroke="#1a1a1a" stroke-width="1" fill="none"/>
</svg>